PathFileType	4	(X/Y/Z)	OpenSim_Sub06_CSStiffKnee_Accel.trc
DataRate	CameraRate	NumFrames	NumMarkers	Units	OrigDataRate	OrigDataStartFrame	OrigNumFrames
100	100	34	8	m	100	896	7164
Frame#	Time	torso_imu_offset_imu	pelvis_imu_offset_imu	tibia_r_imu_offset_imu	femur_r_imu_offset_imu	tibia_l_imu_offset_imu	femur_l_imu_offset_imu	toes_r_imu_offset_imu	toes_l_imu_offset_imu
				X1	Y1	Z1	X2	Y2	Z2	X3	Y3	Z3	X4	Y4	Z4	X5	Y5	Z5	X6	Y6	Z6	X7	Y7	Z7	X8		Y8	Z8	

896	8.95000000	8.57108847	-0.69015654	5.99950972	7.68644121	3.02688124	4.62700431	9.82420863	2.92126715	0.54025899	8.51929961	-2.78773001	-1.06016499	8.06914792	-2.37655763	2.48137455	7.67112548	3.36305434	0.21904961	6.06324218	-2.26133293	7.56246142	13.66789090	-1.40960267	12.30229141
897	8.96000000	8.59944840	-0.68985299	6.04917547	7.77394862	3.00252353	4.73652632	9.91566287	2.27583283	0.56212968	8.32764867	-2.23774462	-1.14309472	7.58032308	-1.15096762	2.48409673	7.73943157	3.45991723	0.22887470	6.12821369	-2.16679519	7.57241196	14.91833882	-2.49021031	11.42494796
898	8.97000000	8.71673323	-0.78545191	6.16707581	7.92633855	2.99666723	4.91029573	9.91947600	1.70886630	0.71161606	8.48727956	-1.46836734	-1.20643684	7.53187362	-0.08942628	2.89073001	8.09728031	3.79706396	0.53073898	6.33844283	-2.04894492	7.51094951	14.26691659	-3.37636721	9.69260240
899	8.98000000	8.66400546	-0.95869550	6.15302693	7.98933414	2.72731449	5.04873739	9.84009448	1.18933542	0.74887109	8.64330110	-0.68485758	-1.30694315	8.22033624	0.44261474	3.45379981	7.86780380	3.95795069	1.35684060	6.27534622	-2.00637654	7.41137732	12.57729728	-3.02796410	7.49732176
900	8.99000000	8.55014955	-1.08586059	6.15345754	8.07772444	2.43801575	5.12679905	9.75605615	0.59353588	0.97711549	8.65475510	-0.21023959	-1.32399869	8.87800168	0.54669487	3.37130215	7.66972339	4.14466190	2.17752613	6.23416897	-2.06583361	7.48559268	11.24292632	-2.33979000	5.24586134
901	9	8.48395382	-1.17786760	6.41092587	8.09786653	2.08646472	5.30829053	9.62717236	0.08603871	1.22634069	8.73104718	-0.17924962	-1.24926748	9.25989424	1.06542199	2.60378261	8.29622636	4.99424456	2.19521991	6.24963495	-2.01125048	7.61045040	11.57563519	-2.21696978	3.27048196
902	9.01000000	8.46522290	-1.35745469	6.41883161	8.02765606	1.63560290	5.40780497	9.70919471	-0.03160956	1.13230224	8.91325844	-0.47263382	-1.14370224	10.03347511	2.72986830	1.90076395	8.39960646	5.39809135	2.09423695	6.27415092	-1.86408407	7.58427640	12.50735762	-1.90290854	1.83725708
903	9.02000000	8.55762049	-1.38565849	6.52944031	8.02118677	1.44758248	5.42481095	10.05960793	0.23347750	1.22027692	9.31442392	-1.04791034	-1.02639273	10.83955242	5.05670153	1.90068879	8.51506095	5.58470207	1.79536331	6.12644540	-1.99759827	7.87032264	12.96924400	-1.12301370	0.41717021
904	9.03000000	8.63034768	-1.51887198	6.60373174	7.76755076	1.03181837	5.35749577	10.41782493	0.72531561	1.47867990	9.69264751	-1.77969776	-1.01883971	11.04240904	6.74052491	2.36064375	8.60786196	5.63295518	1.22648796	6.16674585	-2.06941560	7.98494249	13.11487824	-1.13786140	-0.78907902
905	9.04000000	8.62031510	-1.69044981	6.66437917	7.87465945	0.95048724	5.11599194	10.55961168	1.32927387	1.70189313	9.86425904	-2.33147667	-0.92686980	10.49157870	7.08459242	2.74623487	8.56038355	5.92681661	0.54374783	6.06566620	-1.95460162	8.02391745	13.52429122	-2.17064106	-1.54879479
906	9.05000000	8.64864507	-1.81232085	6.65500170	7.91051780	1.02534384	4.79406478	10.61983025	1.80045928	1.77352966	9.86009695	-2.62336546	-0.73310080	10.13368221	6.63807968	3.00605022	8.07979471	6.18673920	-0.27347664	6.12427194	-1.72355205	8.16527120	13.70029816	-2.59908753	-1.46402113
907	9.06000000	8.76285264	-1.77981879	6.58193672	8.00623542	1.29221832	4.47818495	10.56676849	1.98905639	2.02837319	9.67351060	-2.53397604	-0.46553934	9.93270243	5.29498727	3.18286118	7.69446576	6.23466139	-0.88562157	6.48760842	-1.36170597	8.09568305	14.03201223	-3.69662692	-0.82823106
908	9.07000000	8.87558825	-1.70810917	6.47980935	8.24387181	1.85051524	4.28272392	10.40771859	1.84330803	2.28685378	9.51801269	-2.07471754	-0.23250458	9.47555503	3.34826465	3.25610213	7.28180061	6.04763883	-1.16971851	6.26171499	-1.55412483	8.07092685	13.64690485	-0.58413569	1.27755805
909	9.08000000	9.02000532	-1.69647072	6.40487936	8.43785537	2.29093563	4.31809713	10.29650770	1.45765928	2.40404506	9.72227932	-1.49581827	-0.31060256	9.16256517	1.19755961	2.84575899	6.58241103	5.25589024	-1.38801928	6.10574301	-1.53387715	8.25975084	12.78853521	1.53361859	-2.02406070
910	9.09000000	9.43983404	-1.67481481	6.44595009	8.55215534	2.60497367	4.58143282	10.28077986	0.81614927	2.29711746	9.75229276	-1.10908269	-0.45255085	9.50007345	-0.12387073	2.34205077	6.49200746	4.58890405	-0.97399618	6.20352663	-1.81995631	8.24137977	12.79998971	-9.47593243	0.45894918
911	9.10000000	10.05702885	-1.67620557	6.53535177	8.64577160	2.77938705	5.14872880	10.52678541	0.15108033	2.53248605	9.93938844	-0.92088368	-0.58947793	9.93432922	-1.44652605	3.31543435	7.69032418	4.12209920	0.18595407	6.39983467	-2.15017400	8.20046000	7.92300849	-9.51175901	22.63596584
912	9.11000000	11.00199476	-1.46956686	6.68409090	8.65505028	2.39997597	6.57943749	11.08756432	-0.39633098	2.58856023	10.60166836	-0.95351807	-0.64918654	11.35079081	-5.66256047	2.73935715	9.87755013	3.18545251	1.20810531	6.28005579	-2.26564561	8.89407838	14.69708395	-8.49204073	29.60329063
913	9.12000000	12.97290557	-0.82692534	6.96194396	8.91743523	1.25842844	8.58700128	12.26346990	-0.72274168	2.86705812	11.50636456	-1.13662915	-0.68461539	14.27686353	-6.76312604	4.04942658	15.62053224	3.56866905	1.67952139	6.02419645	-3.23629987	9.22794704	27.34267182	-5.90256651	21.06754512
914	9.13000000	14.66119642	-0.25868571	7.19714919	9.97546112	-0.59670523	9.97878499	13.80206057	-0.84579397	3.40609515	12.32042751	-1.62547141	-0.61291331	19.46007867	-2.25472625	10.17522999	24.25994726	4.70288542	0.23927038	5.84975841	-4.16031516	9.88392818	17.05766145	-6.04773560	4.72410196
915	9.14000000	14.75753528	0.04541455	7.97378351	12.87275107	-2.40175641	9.39680743	15.31132487	-1.02245788	4.13426988	14.15580496	-1.83249191	-0.59882373	21.80783234	-2.57966990	10.50885443	27.12465084	5.08188409	-5.00995109	5.77687107	-5.35563092	9.79417640	-2.03763995	7.47923422	24.72515573
916	9.15000000	13.04735777	0.07403972	8.20890805	16.71668267	-4.14577793	8.74666222	15.88828388	-1.12661384	5.60498021	15.02818440	-1.64389966	-0.70489203	14.38529878	-6.84494833	4.68504545	20.17626596	4.29333900	-4.58734038	6.01777476	-5.99413253	8.94395326	13.68240953	0.17949675	8.56682714
917	9.16000000	12.61173205	0.61522260	7.71447936	16.79958452	-6.14468534	9.13775896	14.89738585	-1.15948773	5.97533908	13.40908351	-0.99193503	-0.32051397	6.89473547	-6.51130380	1.30142947	12.77490952	2.94505103	-0.01830538	6.23684152	-5.18178936	9.38348708	6.07384380	-5.81554555	9.35692793
918	9.17000000	12.44334855	1.09633219	6.84577211	13.00775714	-3.98692110	8.40158523	13.64654875	-0.96253833	5.41049092	12.89327062	-0.46916695	0.13183215	4.88865589	-9.21222805	1.38921445	8.24938437	-1.64290051	-1.00019967	6.01172300	-5.52820086	9.30958290	6.28950810	2.39296748	12.33445657
919	9.18000000	11.33421656	1.22673735	5.95130535	10.47829812	-0.56139658	7.68471039	12.82087337	-0.23090240	4.08698335	12.55365190	-0.19164847	0.21860885	4.70262740	-11.19091932	0.60568521	7.86769769	-2.14949688	-1.92620607	7.07661412	-3.46200679	9.81232118	5.67422206	1.03764680	11.07627717
920	9.19000000	10.68494824	1.13077302	5.47256102	9.11296004	0.61948318	7.21618427	12.10535085	0.75159108	2.34097897	11.70661613	-0.09239097	0.49862746	7.08055215	-8.14336067	-1.53465446	6.17001469	-3.67663791	-3.22001381	9.10071273	-1.85897968	9.84888503	5.25457292	3.43048144	11.36730755
921	9.20000000	9.96453547	0.77158158	5.45163417	7.50293635	1.14095778	6.32950210	11.36643696	2.07786548	2.32464057	10.14199581	-0.20520881	1.11488903	10.11173127	-5.70370612	-2.34079219	6.55943487	-4.80467426	-4.98382714	11.15719422	-3.70039839	8.45077598	5.41634747	2.87747323	11.23696179
922	9.21000000	9.19223434	0.22128863	5.29450780	6.55729041	0.73992275	5.50394987	10.43932793	3.80500805	2.28618402	8.66563557	-0.35390524	2.06002741	11.79458139	-6.34837438	-1.82580303	7.05269109	-6.16568700	-5.99923997	11.86490113	-3.69239729	7.99142452	5.39130331	2.37892031	11.23003082
923	9.22000000	8.64354377	0.10496511	5.19056386	6.04835688	0.08016698	5.27031208	9.15773299	5.10588801	1.28586774	7.79527079	-0.54369186	2.87985729	10.62874275	-7.50432846	-0.75433337	6.88949890	-5.78243245	-6.19554220	13.87934382	-3.69208934	7.68955205	5.63398946	1.30164450	10.85761806
924	9.23000000	8.20930896	0.14310122	4.89648217	5.68059672	-0.67729510	5.32771665	7.65437033	5.84981485	1.01977725	8.09461801	-0.90465941	3.74234671	8.68048544	-5.75454426	0.82120043	7.08511188	-3.11684943	-5.67327645	11.60019688	-4.36924781	5.38867698	5.04348767	0.46464069	11.05771693
925	9.24000000	8.11474900	0.33864903	4.61663490	5.68080253	-1.22388927	5.42684493	6.17285282	6.29965651	0.93972593	8.66288466	-1.15519153	4.25431334	8.41070260	-2.68472558	1.85174621	9.41561844	-0.60425093	-4.90636020	8.28896282	-2.29640927	3.35022841	4.55971811	0.33211097	11.19195505
926	9.25000000	7.93740845	0.50646448	4.51045993	5.99891524	-1.64373915	5.51897109	4.92574418	6.65773520	0.95077278	8.87678111	-0.65826729	4.39737966	9.15032780	0.34412263	2.73285881	10.45756884	1.70478128	-4.07537594	9.34204836	-1.46800420	9.00578037	3.88971968	0.92324752	11.60277252
927	9.26000000	7.74444750	0.63904642	4.42657716	6.38009335	-1.98892610	5.65297126	4.06147478	7.03783898	0.45440800	9.39066619	-0.12167432	4.28898153	10.01070581	2.83291880	3.45986068	10.44894398	2.80372604	-2.94506889	15.57350152	-7.95059357	17.07036281	4.32894407	0.93962558	11.50836744
928	9.27000000	7.62647201	0.90119110	4.42562491	6.64833338	-2.19085675	5.76493888	3.77947842	7.74076500	0.00506465	9.26966168	0.66763160	3.71676515	10.47460471	4.55934394	3.29502582	9.90742520	3.51777110	-1.46736011	6.20930698	-12.09256831	11.52727423	4.67328190	0.72158028	11.35442149
929	9.28000000	7.67956770	1.23150440	4.46915393	6.76592207	-2.32840414	5.86135893	3.56376732	7.68893086	0.99449151	9.54600863	1.24623693	2.83558161	10.36963551	4.52912701	2.45158162	9.07143549	3.90532186	-0.07929603	-4.14390416	-9.78877172	6.89388345	4.90087934	1.15873173	11.28042528
